<svg xmlns="http://www.w3.org/2000/svg" width="18.833" height="18.132" viewBox="0 0 251.833 242.132">
  <path id="Icon_awesome-edit" data-name="Icon awesome-edit" d="M176.021,39.314l39.436,42.665a4.9,4.9,0,0,1,0,6.527l-95.487,103.3L79.4,196.683c-5.421.662-10.012-4.3-9.4-10.17l4.5-43.9,95.487-103.3A4.049,4.049,0,0,1,176.021,39.314Zm70.828-10.832L225.513,5.4a16.2,16.2,0,0,0-24.134,0L185.9,22.144a4.9,4.9,0,0,0,0,6.528l39.436,42.665a4.05,4.05,0,0,0,6.033,0l15.477-16.744a19.589,19.589,0,0,0,0-26.11Zm-78.96,135.233v48.152H27.981V60.5H128.452a5.175,5.175,0,0,0,3.716-1.656l17.488-18.92c3.323-3.595.962-9.7-3.716-9.7H20.986C9.4,30.232,0,40.4,0,52.937v166.5c0,12.535,9.4,22.7,20.986,22.7h153.9c11.586,0,20.986-10.17,20.986-22.7V144.795c0-5.061-5.64-7.568-8.963-4.021l-17.488,18.92A6.069,6.069,0,0,0,167.888,163.715Z" transform="translate(0 -0.007)" fill="#00e698"/>
</svg>
